<svg xmlns="http://www.w3.org/2000/svg" width="18" height="18" viewBox="0 0 18 18">
  <g id="store" transform="translate(96.069 -178.621)" opacity="0.65">
    <path id="_7" data-name="7" d="M-96.069,279.421c.48,0,.959.011,1.439.012h4.2v3.394h-.194c-1.593,0-3.185,0-4.778,0a.623.623,0,0,1-.669-.422Z" transform="translate(0 -96.37)"/>
    <path id="_6" data-name="6" d="M-86.451,178.621-87.012,182h-5.579l.264-.794c.228-.688.461-1.374.683-2.063a.73.73,0,0,1,.447-.521Z" transform="translate(-3.325 0)"/>
    <path id="_5" data-name="5" d="M175.077,178.621a.712.712,0,0,1,.44.5c.293.9.6,1.8.9,2.695.018.054.031.11.05.179h-5.571q-.28-1.683-.561-3.378Z" transform="translate(-254.693 0)"/>
    <path id="_4" data-name="4" d="M62.63,178.621c.075.485.148.971.227,1.456.1.589.2,1.177.3,1.766.008.046.008.093.013.154H58.783c.046-.287.089-.567.136-.846q.2-1.195.4-2.389a1.131,1.131,0,0,0,.006-.14Z" transform="translate(-148.047 0)"/>
    <path id="_3" data-name="3" d="M-70.416,381.051h15.745v.169q0,4.139,0,8.278c0,.47-.191.656-.664.656H-69.747c-.483,0-.669-.185-.669-.668q0-4.131,0-8.261Z" transform="translate(-24.525 -193.535)"/>
    <path id="_2" data-name="2" d="M190.809,279.986v2.282c0,.176,0,.352,0,.527a.533.533,0,0,1-.573.571c-.474,0-.949,0-1.424,0h-3.644v-3.382Z" transform="translate(-268.878 -96.91)"/>
    <path id="_1" data-name="1" d="M61.378,283.293H56.815v-3.375h4.563Z" transform="translate(-146.166 -96.846)"/>
  </g>
</svg>
