<svg xmlns="http://www.w3.org/2000/svg" width="20.058" height="19.735" viewBox="0 0 20.058 19.735">
  <g id="Iconly_Light_Work" data-name="Iconly/Light/Work" transform="translate(-1.995 -2)">
    <g id="Work" transform="translate(2 2)">
      <path id="Stroke_1" data-name="Stroke 1" d="M0,0S.142,1.738.175,2.286a3.823,3.823,0,0,0,.8,2.126A2.968,2.968,0,0,0,3.486,5.507c1.237,0,10.232,0,11.469,0a2.968,2.968,0,0,0,2.509-1.095,3.832,3.832,0,0,0,.8-2.126C18.3,1.738,18.441,0,18.441,0" transform="translate(0.804 13.477)" fill="none" stroke="#200e32" stroke-linecap="round" stroke-linejoin="round" stroke-miterlimit="10" stroke-width="1.5"/>
      <path id="Stroke_3" data-name="Stroke 3" d="M0,2.579V2.208A2.207,2.207,0,0,1,2.208,0H4.79A2.208,2.208,0,0,1,7,2.208v.371" transform="translate(6.496 0.751)" fill="none" stroke="#200e32" stroke-linecap="round" stroke-linejoin="round" stroke-miterlimit="10" stroke-width="1.5"/>
      <path id="Stroke_5" data-name="Stroke 5" d="M.5,1.294V0" transform="translate(9.495 13.384)" fill="none" stroke="#200e32" stroke-linecap="round" stroke-linejoin="round" stroke-miterlimit="10" stroke-width="1.5"/>
      <path id="Stroke_7" data-name="Stroke 7" d="M0,3.058V6.525a16.327,16.327,0,0,0,6.738,2.5,2.58,2.58,0,0,1,4.985.01A16.326,16.326,0,0,0,18.49,6.525V3.058A3.051,3.051,0,0,0,15.433,0H3.067A3.059,3.059,0,0,0,0,3.058Z" transform="translate(0.75 3.331)" fill="none" stroke="#200e32" stroke-linecap="round" stroke-linejoin="round" stroke-miterlimit="10" stroke-width="1.5"/>
    </g>
  </g>
</svg>
