<svg id="home_icon" data-name="home icon" xmlns="http://www.w3.org/2000/svg" width="30" height="30" viewBox="0 0 30 30">
  <path id="Path_2" data-name="Path 2" d="M0,0H30V30H0Z" fill="none"/>
  <path id="Path_1" data-name="Path 1" d="M11.8,22.914v-6.25h5v6.25a1.254,1.254,0,0,0,1.25,1.25H21.8a1.254,1.254,0,0,0,1.25-1.25v-8.75h2.125a.62.62,0,0,0,.413-1.087L15.137,3.664a1.26,1.26,0,0,0-1.675,0L3.012,13.076a.622.622,0,0,0,.412,1.087H5.549v8.75a1.254,1.254,0,0,0,1.25,1.25h3.75A1.254,1.254,0,0,0,11.8,22.914Z" transform="translate(0.701 0.836)"/>
</svg>
