<svg xmlns="http://www.w3.org/2000/svg" xmlns:xlink="http://www.w3.org/1999/xlink" width="11.311" height="11.311" viewBox="0 0 11.311 11.311">
  <defs>
    <linearGradient id="linear-gradient" x2="1" y2="1" gradientUnits="objectBoundingBox">
      <stop offset="0" stop-color="#ffce49"/>
      <stop offset="1" stop-color="#f79237"/>
    </linearGradient>
  </defs>
  <path id="crown" d="M10.625,2.424H10.6l.022,5.6v.05a.834.834,0,0,1-.21.568.641.641,0,0,1-.5.24H1.435a.636.636,0,0,1-.5-.24.847.847,0,0,1-.2-.568v-.05l.022-5.6H.728a.642.642,0,0,1-.5-.234.841.841,0,0,1-.2-.574.842.842,0,0,1,.2-.574.635.635,0,0,1,.5-.234.655.655,0,0,1,.5.234.826.826,0,0,1,.21.574.8.8,0,0,1-.3.656L3.556,6.186,5.389,1.54a.687.687,0,0,1-.3-.29A.871.871,0,0,1,4.969.808a.841.841,0,0,1,.2-.574A.637.637,0,0,1,5.671,0a.653.653,0,0,1,.5.234.827.827,0,0,1,.21.574.871.871,0,0,1-.116.442.687.687,0,0,1-.3.29L7.8,6.186l2.419-3.913a.8.8,0,0,1-.3-.656.841.841,0,0,1,.2-.574.637.637,0,0,1,.5-.234.653.653,0,0,1,.5.234.827.827,0,0,1,.21.574.83.83,0,0,1-.21.574.646.646,0,0,1-.5.234ZM.728,9.695h9.9a.647.647,0,0,1,.5.234.82.82,0,0,1,.21.568.844.844,0,0,1-.21.574.639.639,0,0,1-.5.24H.728a.641.641,0,0,1-.5-.24.843.843,0,0,1-.21-.574.832.832,0,0,1,.2-.568.644.644,0,0,1,.5-.234Z" transform="translate(-0.021)" fill="url(#linear-gradient)"/>
</svg>
