<svg xmlns="http://www.w3.org/2000/svg" xmlns:xlink="http://www.w3.org/1999/xlink" width="34.399" height="21.669" viewBox="0 0 34.399 21.669">
  <defs>
    <linearGradient id="linear-gradient" x1="1" y1="0.5" x2="0.235" y2="1" gradientUnits="objectBoundingBox">
      <stop offset="0" stop-color="#ffce49"/>
      <stop offset="1" stop-color="#f15d4c"/>
    </linearGradient>
  </defs>
  <g id="Iconly_Light-outline_Show" data-name="Iconly/Light-outline/Show" transform="translate(-2 -4)">
    <g id="Show" transform="translate(2 4)">
      <path id="Show-2" data-name="Show" d="M16.7,21.662A19.514,19.514,0,0,1,.351,11.67L.1,11.233a.812.812,0,0,1,0-.8A20.513,20.513,0,0,1,7.317,2.789,18.927,18.927,0,0,1,17.2,0l.492.006A19.524,19.524,0,0,1,34.049,10l.24.424a.815.815,0,0,1,.006.807,20.53,20.53,0,0,1-7.214,7.647A18.927,18.927,0,0,1,17.2,21.669ZM9.168,4.223a18.109,18.109,0,0,0-6.2,6.159l-.269.451.291.489A18.229,18.229,0,0,0,8.8,17.229a15.945,15.945,0,0,0,7.5,2.4l.458.018.443,0,.438,0a15.956,15.956,0,0,0,7.971-2.43,18.284,18.284,0,0,0,6.065-6.348l.017-.033a18.374,18.374,0,0,0-5.89-6.258,15.973,15.973,0,0,0-7.723-2.533l-.458-.018-.412-.007A15.928,15.928,0,0,0,9.168,4.223Zm1.3,6.612c0-2.9,3.019-5.264,6.728-5.264s6.728,2.361,6.728,5.264S20.908,16.1,17.2,16.1,10.471,13.737,10.471,10.836Zm2.58,0c0,1.788,1.861,3.243,4.147,3.243s4.149-1.455,4.149-3.243S19.487,7.59,17.2,7.59,13.052,9.045,13.052,10.836Z" transform="translate(0)" fill="url(#linear-gradient)"/>
    </g>
  </g>
</svg>
