<svg id="Send" xmlns="http://www.w3.org/2000/svg" width="11.532" height="11.46" viewBox="0 0 11.532 11.46">
  <path id="Fill_1" data-name="Fill 1" d="M11.206.334A1.118,1.118,0,0,0,10.093.045L.812,2.727a1.1,1.1,0,0,0-.8.872A1.289,1.289,0,0,0,.592,4.8l2.9,1.772a.755.755,0,0,0,.928-.11L7.745,3.143a.424.424,0,0,1,.611,0,.435.435,0,0,1,0,.611L5.028,7.077a.756.756,0,0,0-.111.928L6.69,10.918a1.155,1.155,0,0,0,1.1.536,1.121,1.121,0,0,0,.94-.8l2.751-9.211A1.121,1.121,0,0,0,11.206.334" transform="translate(0)" fill="#fff"/>
  <path id="Combined_Shape" data-name="Combined Shape" d="M2.748,4.4a.433.433,0,0,1,0-.612L3.536,3a.433.433,0,1,1,.612.612L3.36,4.4a.432.432,0,0,1-.612,0ZM2.3,2.214a.433.433,0,0,1,0-.612L3.084.814a.433.433,0,0,1,.612.612l-.788.788a.432.432,0,0,1-.612,0ZM.127,1.526a.433.433,0,0,1,0-.612L.914.126a.433.433,0,1,1,.612.612l-.788.788a.432.432,0,0,1-.612,0Z" transform="translate(0.151 6.889)" fill="#fff" opacity="0.4"/>
</svg>
